<?xml version="1.0" encoding="UTF-8" standalone="no"?>
<!-- Generator: Adobe Illustrator 18.1.1, SVG Export Plug-In . SVG Version: 6.00 Build 0)  -->

<svg
   xmlns:dc="http://purl.org/dc/elements/1.1/"
   xmlns:cc="http://creativecommons.org/ns#"
   xmlns:rdf="http://www.w3.org/1999/02/22-rdf-syntax-ns#"
   xmlns:svg="http://www.w3.org/2000/svg"
   xmlns="http://www.w3.org/2000/svg"
   xmlns:sodipodi="http://sodipodi.sourceforge.net/DTD/sodipodi-0.dtd"
   xmlns:inkscape="http://www.inkscape.org/namespaces/inkscape"
   version="1.1"
   id="Capa_1"
   x="0px"
   y="0px"
   viewBox="0 0 16 16"
   xml:space="preserve"
   sodipodi:docname="pressure.svg"
   width="16"
   height="16"
   inkscape:version="0.92.1 r15371"
   inkscape:export-filename="/home/giagio/.conky/Conky-Harlequin/Numix/pic/pressure.png"
   inkscape:export-xdpi="96"
   inkscape:export-ydpi="96"><metadata
     id="metadata47"><rdf:RDF><cc:Work
         rdf:about=""><dc:format>image/svg+xml</dc:format><dc:type
           rdf:resource="http://purl.org/dc/dcmitype/StillImage" /><dc:title /></cc:Work></rdf:RDF></metadata><defs
     id="defs45" /><sodipodi:namedview
     pagecolor="#000000"
     bordercolor="#666666"
     borderopacity="1"
     objecttolerance="10"
     gridtolerance="10"
     guidetolerance="10"
     inkscape:pageopacity="0"
     inkscape:pageshadow="2"
     inkscape:window-width="640"
     inkscape:window-height="480"
     id="namedview43"
     showgrid="false"
     inkscape:zoom="26.785714"
     inkscape:cx="-17.509333"
     inkscape:cy="14"
     inkscape:current-layer="Capa_1" /><g
     id="g10"
     transform="matrix(0.456,0,0,0.456,1.6159998,1.6159999)"
     style="stroke-width:2.19298244;fill:#dcdcdc;fill-opacity:1"><g
       id="g8"
       style="stroke-width:2.19298244;fill:#dcdcdc;fill-opacity:1"><path
         style="fill:#dcdcdc;stroke-width:2.19298244;fill-opacity:1"
         d="M 15.391,19.341 14,11 12.61,19.341 C 11.653,19.842 11,20.845 11,22 c 0,1.657 1.343,3 3,3 1.657,0 3,-1.343 3,-3 0,-1.155 -0.652,-2.158 -1.609,-2.659 z"
         id="path2"
         inkscape:connector-curvature="0" /><path
         style="fill:#dcdcdc;stroke-width:2.19298244;fill-opacity:1"
         d="M 14,3 C 6.268,3 0,9.268 0,17 c 0,2.059 0.444,4.014 1.242,5.773 0.544,-0.312 1.147,-0.605 1.8,-0.875 C 2.372,20.402 2,18.745 2,17 2,10.373 7.373,5 14,5 c 6.627,0 12,5.373 12,12 0,1.745 -0.372,3.402 -1.042,4.898 0.653,0.27 1.256,0.562 1.8,0.875 C 27.557,21.014 28,19.059 28,17 28,9.268 21.732,3 14,3 Z"
         id="path4"
         inkscape:connector-curvature="0" /><path
         style="fill:#dcdcdc;stroke-width:2.19298244;fill-opacity:1"
         d="m 3.828,21.377 -0.617,-1.901 3.805,-1.235 0.617,1.902 z m 5.235,-9.448 -2.35,-3.236 1.62,-1.176 2.35,3.237 z M 13,6 h 2 v 4 H 13 Z M 7.015,15.801 3.211,14.565 3.83,12.663 7.634,13.899 Z m 13.968,-10e-4 -0.617,-1.902 3.806,-1.235 0.617,1.901 z m -3.667,-5.047 2.352,-3.235 1.619,1.176 -2.351,3.236 z m 6.856,10.624 -3.805,-1.235 0.617,-1.901 3.805,1.235 z"
         id="path6"
         inkscape:connector-curvature="0" /></g></g><g
     id="g12"
     transform="translate(0,-12)" /><g
     id="g14"
     transform="translate(0,-12)" /><g
     id="g16"
     transform="translate(0,-12)" /><g
     id="g18"
     transform="translate(0,-12)" /><g
     id="g20"
     transform="translate(0,-12)" /><g
     id="g22"
     transform="translate(0,-12)" /><g
     id="g24"
     transform="translate(0,-12)" /><g
     id="g26"
     transform="translate(0,-12)" /><g
     id="g28"
     transform="translate(0,-12)" /><g
     id="g30"
     transform="translate(0,-12)" /><g
     id="g32"
     transform="translate(0,-12)" /><g
     id="g34"
     transform="translate(0,-12)" /><g
     id="g36"
     transform="translate(0,-12)" /><g
     id="g38"
     transform="translate(0,-12)" /><g
     id="g40"
     transform="translate(0,-12)" /></svg>